<?xml version="1.0" encoding="UTF-8" standalone="no"?>
<!-- Created with Inkscape (http://www.inkscape.org/) -->

<svg
   width="59.53125mm"
   height="140.12466mm"
   viewBox="0 0 59.53125 140.12466"
   version="1.1"
   id="svg5"
   inkscape:version="1.1.1 (3bf5ae0d25, 2021-09-20)"
   sodipodi:docname="maxresdefault.svg"
   xmlns:inkscape="http://www.inkscape.org/namespaces/inkscape"
   xmlns:sodipodi="http://sodipodi.sourceforge.net/DTD/sodipodi-0.dtd"
   xmlns="http://www.w3.org/2000/svg"
   xmlns:svg="http://www.w3.org/2000/svg">
  <sodipodi:namedview
     id="namedview7"
     pagecolor="#ffffff"
     bordercolor="#666666"
     borderopacity="1.0"
     inkscape:pageshadow="2"
     inkscape:pageopacity="0.0"
     inkscape:pagecheckerboard="0"
     inkscape:document-units="mm"
     showgrid="false"
     inkscape:zoom="0.5"
     inkscape:cx="-164"
     inkscape:cy="352"
     inkscape:window-width="1920"
     inkscape:window-height="1046"
     inkscape:window-x="-11"
     inkscape:window-y="-11"
     inkscape:window-maximized="1"
     inkscape:current-layer="layer1">
    <inkscape:grid
       type="xygrid"
       id="grid873"
       originx="-103.1875"
       originy="-72.671661" />
  </sodipodi:namedview>
  <defs
     id="defs2" />
  <g
     inkscape:label="Слой 1"
     inkscape:groupmode="layer"
     id="layer1"
     transform="translate(-103.1875,-72.671665)">
    <path
       style="fill:none;stroke:#000000;stroke-width:1.201;stroke-linecap:butt;stroke-linejoin:miter;stroke-miterlimit:4;stroke-dasharray:none;stroke-opacity:1"
       d="m 126.44696,132.82113 c 0.0447,1.87299 5.11683,4.61607 7.32992,5.60309 8.8935,3.47525 0.39342,7.85008 -3.59524,9.8235 -2.86341,1.52198 -3.61671,2.22232 -3.61342,3.65196"
       id="path3294-7-1-1"
       sodipodi:nodetypes="cccc" />
    <path
       style="fill:none;stroke:#000000;stroke-width:1.201;stroke-linecap:butt;stroke-linejoin:miter;stroke-miterlimit:4;stroke-dasharray:none;stroke-opacity:1"
       d="m 126.56822,151.89968 c 0.0447,1.87299 5.11683,4.61607 7.32992,5.60309 8.42592,4.77009 0.35211,7.96447 -3.59524,9.8235 -2.86341,1.52198 -3.61671,2.22232 -3.61342,3.65196 -0.002,1.45323 0.77121,2.3296 1.79991,3.35877 0.88856,0.88897 3.89499,2.86933 5.54497,3.35091"
       id="path3294-7-1-1-4"
       sodipodi:nodetypes="ccccsc" />
    <path
       style="fill:none;stroke:#000000;stroke-width:1.765;stroke-linecap:butt;stroke-linejoin:miter;stroke-miterlimit:4;stroke-dasharray:none;stroke-opacity:1"
       d="m 103.1875,73.554165 h 59.53125"
       id="path875" />
    <path
       style="fill:none;stroke:#000000;stroke-width:1.201;stroke-linecap:butt;stroke-linejoin:miter;stroke-miterlimit:4;stroke-dasharray:none;stroke-opacity:1"
       d="m 133.61458,74.083333 c 0.52917,1.322917 1.61845,2.670161 2.34498,3.595323 4.16793,5.307456 0.25582,7.964395 -3.51972,10.177046 -2.84885,1.669563 -5.43955,3.209593 -5.43984,4.748465"
       id="path3294"
       sodipodi:nodetypes="cssc" />
    <path
       style="fill:none;stroke:#000000;stroke-width:1.201;stroke-linecap:butt;stroke-linejoin:miter;stroke-miterlimit:4;stroke-dasharray:none;stroke-opacity:1"
       d="m 127,92.604167 c 0,2.116666 4.49792,5.820833 6.82412,6.592466 8.44391,2.800957 0.64682,7.588297 -3.34335,9.868407 -2.86696,1.63827 -3.74506,2.10859 -3.74535,3.64746"
       id="path3294-7"
       sodipodi:nodetypes="cssc" />
    <path
       style="fill:none;stroke:#000000;stroke-width:1.201;stroke-linecap:butt;stroke-linejoin:miter;stroke-miterlimit:4;stroke-dasharray:none;stroke-opacity:1"
       d="m 126.73542,112.7125 c 0.04,2.0161 5.10481,4.96877 7.31523,6.0312 8.805,4.51638 0.11174,8.04166 -3.87565,10.10838 -2.86696,1.63827 -3.70388,2.42988 -3.70417,3.96875"
       id="path3294-7-1"
       sodipodi:nodetypes="cccc" />
    <path
       style="fill:none;stroke:#000000;stroke-width:1.201;stroke-linecap:butt;stroke-linejoin:miter;stroke-miterlimit:4;stroke-dasharray:none;stroke-opacity:1"
       d="m 117.14013,177.8062 31.02653,-0.27079"
       id="path8400"
       sodipodi:nodetypes="cc" />
    <path
       style="fill:none;stroke:#000000;stroke-width:1.201;stroke-linecap:butt;stroke-linejoin:miter;stroke-miterlimit:4;stroke-dasharray:none;stroke-opacity:1"
       d="m 148.16666,177.53541 v 34.39584"
       id="path8402" />
    <path
       style="fill:none;stroke:#000000;stroke-width:1.201;stroke-linecap:butt;stroke-linejoin:miter;stroke-miterlimit:4;stroke-dasharray:none;stroke-opacity:1"
       d="m 148.16666,211.93125 v 0.26458 h -30.42708"
       id="path8404" />
    <path
       style="fill:none;stroke:#000000;stroke-width:1.201;stroke-linecap:butt;stroke-linejoin:miter;stroke-miterlimit:4;stroke-dasharray:none;stroke-opacity:1"
       d="M 117.73958,212.19583 V 177.8"
       id="path8406" />
    <path
       style="fill:none;stroke:#000000;stroke-width:1.201;stroke-linecap:butt;stroke-linejoin:miter;stroke-miterlimit:4;stroke-dasharray:none;stroke-opacity:1"
       d="m 117.73958,177.8 v -0.13229"
       id="path8408" />
    <path
       style="fill:none;stroke:#000000;stroke-width:1.201;stroke-linecap:butt;stroke-linejoin:miter;stroke-miterlimit:4;stroke-dasharray:none;stroke-opacity:1"
       d="m 148.16666,177.53541 c 0.006,-0.0138 0.006,-0.0138 0,0"
       id="path8410" />
    <path
       style="fill:none;stroke:#000000;stroke-width:1.201;stroke-linecap:butt;stroke-linejoin:miter;stroke-miterlimit:4;stroke-dasharray:none;stroke-opacity:1"
       d="m 117.73958,212.19583 0.002,0.12934"
       id="path8412" />
  </g>
</svg>
