<?xml version="1.0" encoding="UTF-8" standalone="no"?>
<!-- Created with Inkscape (http://www.inkscape.org/) -->

<svg
   width="251.97185mm"
   height="112.6821mm"
   viewBox="0 0 251.97184 112.6821"
   version="1.1"
   id="svg5"
   sodipodi:docname="5.svg"
   inkscape:version="1.1.1 (3bf5ae0d25, 2021-09-20)"
   xmlns:inkscape="http://www.inkscape.org/namespaces/inkscape"
   xmlns:sodipodi="http://sodipodi.sourceforge.net/DTD/sodipodi-0.dtd"
   xmlns="http://www.w3.org/2000/svg"
   xmlns:svg="http://www.w3.org/2000/svg">
  <sodipodi:namedview
     id="namedview7"
     pagecolor="#ffffff"
     bordercolor="#666666"
     borderopacity="1.0"
     inkscape:pageshadow="2"
     inkscape:pageopacity="0.0"
     inkscape:pagecheckerboard="0"
     inkscape:document-units="mm"
     showgrid="false"
     inkscape:zoom="0.76435185"
     inkscape:cx="653.49485"
     inkscape:cy="221.75651"
     inkscape:window-width="1920"
     inkscape:window-height="1017"
     inkscape:window-x="-8"
     inkscape:window-y="-8"
     inkscape:window-maximized="1"
     inkscape:current-layer="layer1">
    <inkscape:grid
       type="xygrid"
       id="grid66771"
       originx="304.56071"
       originy="-23.671002" />
  </sodipodi:namedview>
  <defs
     id="defs2" />
  <g
     inkscape:label="Слой 1"
     inkscape:groupmode="layer"
     id="layer1"
     transform="translate(304.56076,-23.67099)">
    <text
       xml:space="preserve"
       style="font-size:33.9897px;line-height:1.25;font-family:sans-serif;-inkscape-font-specification:'sans-serif, Normal';stroke-width:0.849744"
       x="-187.56833"
       y="128.81612"
       id="text1344-29"
       transform="scale(0.94642612,1.0566065)"><tspan
         sodipodi:role="line"
         id="tspan1342-9"
         style="font-style:normal;font-variant:normal;font-weight:normal;font-stretch:normal;font-size:6.79797px;font-family:sans-serif;-inkscape-font-specification:'sans-serif, Normal';font-variant-ligatures:normal;font-variant-caps:normal;font-variant-numeric:normal;font-variant-east-asian:normal;stroke-width:0.849744"
         x="-187.56833"
         y="128.81612">0</tspan></text>
    <text
       xml:space="preserve"
       style="font-size:33.9897px;line-height:1.25;font-family:sans-serif;-inkscape-font-specification:'sans-serif, Normal';stroke-width:0.849744"
       x="-155.95671"
       y="129.01926"
       id="text1344-29-1"
       transform="scale(0.94642612,1.0566065)"><tspan
         sodipodi:role="line"
         id="tspan1342-9-4"
         style="font-style:normal;font-variant:normal;font-weight:normal;font-stretch:normal;font-size:6.79797px;font-family:sans-serif;-inkscape-font-specification:'sans-serif, Normal';font-variant-ligatures:normal;font-variant-caps:normal;font-variant-numeric:normal;font-variant-east-asian:normal;stroke-width:0.849744"
         x="-155.95671"
         y="129.01926">2</tspan></text>
    <text
       xml:space="preserve"
       style="font-size:33.9897px;line-height:1.25;font-family:sans-serif;-inkscape-font-specification:'sans-serif, Normal';stroke-width:0.849744"
       x="-319.45996"
       y="43.9156"
       id="text1344-29-1-9"
       transform="scale(0.94642611,1.0566065)"><tspan
         sodipodi:role="line"
         id="tspan1342-9-4-1"
         style="font-style:normal;font-variant:normal;font-weight:normal;font-stretch:normal;font-size:6.79797px;font-family:sans-serif;-inkscape-font-specification:'sans-serif, Normal';font-variant-ligatures:normal;font-variant-caps:normal;font-variant-numeric:normal;font-variant-east-asian:normal;stroke-width:0.849744"
         x="-319.45996"
         y="43.9156">2</tspan></text>
    <text
       xml:space="preserve"
       style="font-size:33.9897px;line-height:1.25;font-family:sans-serif;-inkscape-font-specification:'sans-serif, Normal';stroke-width:0.849744"
       x="-319.3905"
       y="59.688114"
       id="text1344-29-1-5"
       transform="scale(0.94642611,1.0566065)"><tspan
         sodipodi:role="line"
         id="tspan1342-9-4-8"
         style="font-style:normal;font-variant:normal;font-weight:normal;font-stretch:normal;font-size:6.79797px;font-family:sans-serif;-inkscape-font-specification:'sans-serif, Normal';font-variant-ligatures:normal;font-variant-caps:normal;font-variant-numeric:normal;font-variant-east-asian:normal;stroke-width:0.849744"
         x="-319.3905"
         y="59.688114">1</tspan></text>
    <text
       xml:space="preserve"
       style="font-size:33.9897px;line-height:1.25;font-family:sans-serif;-inkscape-font-specification:'sans-serif, Normal';stroke-width:0.849744"
       x="-319.66846"
       y="27.448212"
       id="text1344-29-1-1"
       transform="scale(0.94642611,1.0566065)"><tspan
         sodipodi:role="line"
         id="tspan1342-9-4-5"
         style="font-style:normal;font-variant:normal;font-weight:normal;font-stretch:normal;font-size:6.79797px;font-family:sans-serif;-inkscape-font-specification:'sans-serif, Normal';font-variant-ligatures:normal;font-variant-caps:normal;font-variant-numeric:normal;font-variant-east-asian:normal;stroke-width:0.849744"
         x="-319.66846"
         y="27.448212">3</tspan></text>
    <text
       xml:space="preserve"
       style="font-size:33.9897px;line-height:1.25;font-family:sans-serif;-inkscape-font-specification:'sans-serif, Normal';stroke-width:0.849744"
       x="-319.32104"
       y="76.224991"
       id="text1344-29-1-0"
       transform="scale(0.94642611,1.0566065)"><tspan
         sodipodi:role="line"
         id="tspan1342-9-4-9"
         style="font-style:normal;font-variant:normal;font-weight:normal;font-stretch:normal;font-size:6.79797px;font-family:sans-serif;-inkscape-font-specification:'sans-serif, Normal';font-variant-ligatures:normal;font-variant-caps:normal;font-variant-numeric:normal;font-variant-east-asian:normal;stroke-width:0.849744"
         x="-319.32104"
         y="76.224991">0</tspan></text>
    <text
       xml:space="preserve"
       style="font-size:33.9897px;line-height:1.25;font-family:sans-serif;-inkscape-font-specification:'sans-serif, Normal';stroke-width:0.849744"
       x="-322.1698"
       y="91.92804"
       id="text1344-29-1-4"
       transform="scale(0.94642611,1.0566065)"><tspan
         sodipodi:role="line"
         id="tspan1342-9-4-2"
         style="font-style:normal;font-variant:normal;font-weight:normal;font-stretch:normal;font-size:6.79797px;font-family:sans-serif;-inkscape-font-specification:'sans-serif, Normal';font-variant-ligatures:normal;font-variant-caps:normal;font-variant-numeric:normal;font-variant-east-asian:normal;stroke-width:0.849744"
         x="-322.1698"
         y="91.92804">-1</tspan></text>
    <text
       xml:space="preserve"
       style="font-size:33.9897px;line-height:1.25;font-family:sans-serif;-inkscape-font-specification:'sans-serif, Normal';stroke-width:0.849744"
       x="-322.30875"
       y="107.77007"
       id="text1344-29-1-12"
       transform="scale(0.94642611,1.0566065)"><tspan
         sodipodi:role="line"
         id="tspan1342-9-4-80"
         style="font-style:normal;font-variant:normal;font-weight:normal;font-stretch:normal;font-size:6.79797px;font-family:sans-serif;-inkscape-font-specification:'sans-serif, Normal';font-variant-ligatures:normal;font-variant-caps:normal;font-variant-numeric:normal;font-variant-east-asian:normal;stroke-width:0.849744"
         x="-322.30875"
         y="107.77007">-2</tspan></text>
    <text
       xml:space="preserve"
       style="font-size:33.9897px;line-height:1.25;font-family:sans-serif;-inkscape-font-specification:'sans-serif, Normal';stroke-width:0.849744"
       x="-123.47605"
       y="129.04813"
       id="text1344-29-0"
       transform="scale(0.94642611,1.0566065)"><tspan
         sodipodi:role="line"
         id="tspan1342-9-7"
         style="font-style:normal;font-variant:normal;font-weight:normal;font-stretch:normal;font-size:6.79797px;font-family:sans-serif;-inkscape-font-specification:'sans-serif, Normal';font-variant-ligatures:normal;font-variant-caps:normal;font-variant-numeric:normal;font-variant-east-asian:normal;stroke-width:0.849744"
         x="-123.47605"
         y="129.04813">4</tspan></text>
    <text
       xml:space="preserve"
       style="font-size:33.9897px;line-height:1.25;font-family:sans-serif;-inkscape-font-specification:'sans-serif, Normal';stroke-width:0.849744"
       x="-91.486542"
       y="128.89761"
       id="text1344-29-8"
       transform="scale(0.94642612,1.0566065)"><tspan
         sodipodi:role="line"
         id="tspan1342-9-3"
         style="font-style:normal;font-variant:normal;font-weight:normal;font-stretch:normal;font-size:6.79797px;font-family:sans-serif;-inkscape-font-specification:'sans-serif, Normal';font-variant-ligatures:normal;font-variant-caps:normal;font-variant-numeric:normal;font-variant-east-asian:normal;stroke-width:0.849744"
         x="-91.486542"
         y="128.89761">6</tspan></text>
    <text
       xml:space="preserve"
       style="font-size:33.9897px;line-height:1.25;font-family:sans-serif;-inkscape-font-specification:'sans-serif, Normal';stroke-width:0.849744"
       x="-59.369442"
       y="128.88019"
       id="text1344-29-13"
       transform="scale(0.94642612,1.0566065)"><tspan
         sodipodi:role="line"
         id="tspan1342-9-1"
         style="font-style:normal;font-variant:normal;font-weight:normal;font-stretch:normal;font-size:6.79797px;font-family:sans-serif;-inkscape-font-specification:'sans-serif, Normal';font-variant-ligatures:normal;font-variant-caps:normal;font-variant-numeric:normal;font-variant-east-asian:normal;stroke-width:0.849744"
         x="-59.369442"
         y="128.88019">8</tspan></text>
    <path
       style="fill:none;stroke:#000000;stroke-width:0.849744px;stroke-linecap:butt;stroke-linejoin:miter;stroke-opacity:1"
       d="m -84.5035,26.543375 0.01218,2.833826"
       id="path66779-34" />
    <path
       style="fill:none;stroke:#000000;stroke-width:0.849744px;stroke-linecap:butt;stroke-linejoin:miter;stroke-opacity:1"
       d="m -115.06393,26.599468 0.0122,2.833828"
       id="path66779-30" />
    <path
       style="fill:none;stroke:#000000;stroke-width:0.849744px;stroke-linecap:butt;stroke-linejoin:miter;stroke-opacity:1"
       d="m -145.67462,26.599468 0.0113,2.833828"
       id="path66779-1" />
    <path
       style="fill:none;stroke:#000000;stroke-width:0.849744px;stroke-linecap:butt;stroke-linejoin:miter;stroke-opacity:1"
       d="m -175.38057,26.711689 0.0113,2.833828"
       id="path66779-2" />
    <path
       style="fill:none;stroke:#000000;stroke-width:0.849744px;stroke-linecap:butt;stroke-linejoin:miter;stroke-opacity:1"
       d="m -255.09373,26.513783 c 10.5097,6.177451 19.86313,12.720066 32.95107,14.675875"
       id="path54"
       sodipodi:nodetypes="cc" />
    <path
       style="fill:none;stroke:#000000;stroke-width:0.849744px;stroke-linecap:butt;stroke-linejoin:miter;stroke-opacity:1"
       d="m -222.14266,41.189658 c 17.77341,-0.0767 27.06077,-10.024794 44.06875,-9.126755 28.75366,2.798841 30.85794,20.803542 53.13418,22.391805"
       id="path222"
       sodipodi:nodetypes="ccc" />
    <path
       style="fill:none;stroke:#000000;stroke-width:0.849744px;stroke-linecap:butt;stroke-linejoin:miter;stroke-opacity:1"
       d="m -124.93973,54.454708 c 17.33518,-2.491427 27.247071,-14.493067 42.08646,-13.802164"
       id="path974"
       sodipodi:nodetypes="cc" />
    <path
       style="fill:none;stroke:#000000;stroke-width:0.849744px;stroke-linecap:butt;stroke-linejoin:miter;stroke-opacity:1"
       d="m -82.85327,40.652544 c 14.096691,0.537759 20.609343,7.982758 28.342612,14.316068"
       id="path1294"
       sodipodi:nodetypes="cc" />
    <path
       style="fill:none;stroke:#000000;stroke-width:0.849744px;stroke-linecap:butt;stroke-linejoin:miter;stroke-opacity:1"
       d="m -296.63474,101.30463 c 7.68007,7.29275 16.72552,12.4896 28.36464,13.70497"
       id="path1775"
       sodipodi:nodetypes="cc" />
    <path
       style="fill:none;stroke:#000000;stroke-width:0.849744px;stroke-linecap:butt;stroke-linejoin:miter;stroke-opacity:1"
       d="m -268.2701,115.0096 c 24.89332,-1.6935 28.0426,-15.009657 42.59346,-13.91262"
       id="path1867"
       sodipodi:nodetypes="cc" />
    <path
       style="fill:none;stroke:#000000;stroke-width:0.849744px;stroke-linecap:butt;stroke-linejoin:miter;stroke-opacity:1"
       d="m -225.67664,101.09698 c 27.83899,4.32781 25.69236,20.57094 53.56735,22.63395"
       id="path2149"
       sodipodi:nodetypes="cc" />
    <path
       style="fill:none;stroke:#000000;stroke-width:0.849744px;stroke-linecap:butt;stroke-linejoin:miter;stroke-opacity:1"
       d="m -172.10928,123.73093 c 13.79206,-0.60517 25.55488,-9.3877 40.82647,-9.03281"
       id="path2811"
       sodipodi:nodetypes="cc" />
    <path
       style="fill:none;stroke:#000000;stroke-width:0.849744px;stroke-linecap:butt;stroke-linejoin:miter;stroke-opacity:1"
       d="m -131.28281,114.69812 c 13.2515,0.11536 23.7938,7.02483 34.642071,13.4454"
       id="path2979"
       sodipodi:nodetypes="cc" />
    <path
       style="fill:none;stroke:#000000;stroke-width:0.849744px;stroke-linecap:butt;stroke-linejoin:miter;stroke-opacity:1"
       d="m -296.54174,89.883829 c 6.29037,9.096278 14.44672,17.889141 27.99264,18.480951 18.72259,-0.45097 39.1673,-23.286695 40.73348,-30.524697 -5.40397,-18.891817 -33.3118,-36.970155 -43.05845,-36.85807 -8.60452,-0.134373 -17.22015,0.30541 -25.94667,6.437182"
       id="path3147"
       sodipodi:nodetypes="ccccc" />
    <path
       style="fill:none;stroke:#000000;stroke-width:0.849744px;stroke-linecap:butt;stroke-linejoin:miter;stroke-opacity:1"
       d="m -296.91374,57.074953 c 6.06786,-5.783029 12.22286,-8.987148 22.22674,-9.863402 17.5195,-0.359298 32.73147,21.560719 32.45657,30.317041 -1.20459,17.120347 -17.48071,25.177018 -26.31867,25.748728 -17.75779,-0.84505 -25.55525,-16.541336 -25.29568,-25.800645 1.07815,-16.899119 14.4077,-21.492611 20.55273,-21.28422 18.01687,1.951905 20.73722,17.300392 20.41326,21.232305 0.16808,15.427827 -12.6535,18.238165 -16.0423,18.429044 -14.2826,-0.314234 -17.93934,-11.576096 -17.25128,-17.961804 0.99586,-16.025072 13.34533,-15.210443 13.34533,-15.210443 10.82424,-0.352172 14.11392,7.746336 14.50724,13.104261 0.73732,12.905192 -8.16224,15.167049 -12.47642,14.88118 -8.71591,-0.577529 -10.78811,-6.321057 -10.8346,-12.991572"
       id="path4037"
       sodipodi:nodetypes="cccccccccccsc" />
    <path
       style="fill:none;stroke:#000000;stroke-width:0.849744px;stroke-linecap:butt;stroke-linejoin:miter;stroke-opacity:1"
       d="m -281.63082,77.675426 c -0.14738,-6.082056 3.70538,-10.274275 9.61862,-10.593225 8.2531,0.448849 9.46854,6.529553 9.76537,10.35161 -0.0951,8.022542 -4.92701,9.816887 -8.28582,9.764286 -7.50978,-0.04543 -8.71671,-5.477147 -8.64744,-9.10351"
       id="path9392"
       sodipodi:nodetypes="ccccc" />
    <path
       style="fill:none;stroke:#000000;stroke-width:0.849744px;stroke-linecap:butt;stroke-linejoin:miter;stroke-opacity:1"
       d="m -296.63474,66.00397 c 5.54418,-8.907061 16.17007,-13.512263 22.5057,-13.808816 20.88869,1.215938 26.15501,19.907537 25.6677,25.229606 -0.79821,18.332808 -17.14004,22.355717 -19.71574,22.218677 -18.44096,-1.143351 -21.63639,-17.709341 -21.66877,-21.284233 -0.1,-11.504805 7.779,-18.501632 17.29778,-18.584771 8.35058,-0.249079 17.58349,8.974591 17.01882,17.754159 -2.23076,13.671462 -8.65146,14.454904 -14.04285,15.885294 -9.83392,-0.933329 -14.56892,-8.989173 -14.43077,-15.64721 0.009,-6.119486 4.57882,-12.825769 11.81086,-12.978201"
       id="path10206"
       sodipodi:nodetypes="cccccccccc" />
    <path
       style="fill:none;stroke:#000000;stroke-width:0.849744px;stroke-linecap:butt;stroke-linejoin:miter;stroke-opacity:1"
       d="m -272.19201,64.788475 c 2.99453,-0.05531 11.3737,2.449518 11.54781,13.051608 -1.34448,11.410153 -6.72552,10.853019 -10.04388,11.135288 -9.24617,-1.379673 -9.8062,-8.286472 -9.67188,-10.771914 0.1924,-5.024332 2.14402,-9.378691 8.18392,-10.019169 6.83716,0.616521 8.38804,5.950335 8.46291,9.422184"
       id="path13812"
       sodipodi:nodetypes="cccccc" />
    <path
       style="fill:none;stroke:#000000;stroke-width:0.849744px;stroke-linecap:butt;stroke-linejoin:miter;stroke-opacity:1"
       d="m -279.18009,78.094587 c 0.30815,-5.51997 3.37127,-8.472804 6.99383,-8.628223 5.52142,0.301337 6.73035,3.76977 7.11173,7.710508"
       id="path15044"
       sodipodi:nodetypes="ccc" />
    <path
       style="fill:none;stroke:#000000;stroke-width:0.849744px;stroke-linecap:butt;stroke-linejoin:miter;stroke-opacity:1"
       d="m -263.71313,77.606472 c 0.13618,3.43447 -2.36747,7.872094 -6.76571,8.228183 -4.26577,-0.109864 -7.31753,-2.414175 -7.67241,-7.760979 0.2544,-4.671808 3.13475,-7.402439 5.97521,-7.57927 2.95808,-0.02714 6.11835,2.726051 6.06814,6.4891"
       id="path15858"
       sodipodi:nodetypes="ccccc" />
    <path
       style="fill:none;stroke:#000000;stroke-width:0.849744px;stroke-linecap:butt;stroke-linejoin:miter;stroke-opacity:1"
       d="m -265.07453,77.176872 c 0.11803,3.370695 -1.50109,6.715164 -5.56705,7.308035 -4.97247,0.515606 -6.4012,-4.116551 -6.39368,-6.151653 0.43511,-5.277074 3.95045,-6.213595 5.06844,-6.281464 4.24868,0.02714 4.77334,3.775952 4.78946,4.827885"
       id="path18040"
       sodipodi:nodetypes="ccccc" />
    <path
       style="fill:none;stroke:#000000;stroke-width:0.849744px;stroke-linecap:butt;stroke-linejoin:miter;stroke-opacity:1"
       d="m -266.1079,76.983506 c -0.1055,3.371859 -2.2115,6.39049 -4.46393,6.540992 -3.66202,0.145515 -5.5788,-3.444273 -5.55667,-4.775956 -0.10244,-2.192442 1.88402,-5.298688 4.18495,-5.347012 3.18427,0.05159 3.43616,1.633736 3.55718,3.556009"
       id="path19808"
       sodipodi:nodetypes="ccccc" />
    <path
       style="fill:none;stroke:#000000;stroke-width:0.849744px;stroke-linecap:butt;stroke-linejoin:miter;stroke-opacity:1"
       d="m -267.17736,76.879675 c 0.001,2.684637 -2.00653,5.562073 -3.39447,5.554686 -3.1557,-0.267066 -4.64835,-2.598596 -4.60343,-3.815616 0.18024,-1.934836 2.0195,-4.254334 3.7897,-4.075123"
       id="path21800"
       sodipodi:nodetypes="cccc" />
    <path
       style="fill:none;stroke:#000000;stroke-width:0.849744px;stroke-linecap:butt;stroke-linejoin:miter;stroke-opacity:1"
       d="m -268.38637,76.957539 c 0.10166,1.570967 -0.993,4.164405 -2.32497,4.204956 -2.17499,-0.0068 -3.48389,-1.423138 -3.37118,-2.751394"
       id="path24058"
       sodipodi:nodetypes="ccc" />
    <path
       style="fill:none;stroke:#000000;stroke-width:0.849744px;stroke-linecap:butt;stroke-linejoin:miter;stroke-opacity:1"
       d="m -54.284161,65.189953 c -6.290377,-9.096281 -14.446722,-16.214255 -27.992633,-18.480936 -18.820346,0.94358 -39.167306,23.286688 -40.733486,30.524691 5.40398,18.891808 33.311808,36.970142 43.05846,36.858072 8.604499,0.13437 17.220155,-0.30541 25.946662,-6.43719"
       id="path3147-1"
       sodipodi:nodetypes="ccccc" />
    <path
       style="fill:none;stroke:#000000;stroke-width:0.849744px;stroke-linecap:butt;stroke-linejoin:miter;stroke-opacity:1"
       d="m -54.565039,98.211752 c -6.06788,5.783018 -12.222875,8.987128 -22.226737,9.863378 -17.519521,0.35931 -32.731484,-21.560709 -32.456584,-30.317042 1.20459,-17.120331 17.480703,-25.176998 26.318672,-25.748725 17.757796,0.845069 25.555258,16.541349 25.295676,25.800657 -1.078137,16.899109 -14.407692,21.492598 -20.552747,21.284221 -18.016859,-1.951906 -20.737219,-17.300397 -20.413232,-21.232305 -0.168088,-15.427828 12.653492,-18.238172 16.042288,-18.429053 14.282615,0.314232 17.939349,11.576103 17.251279,17.961815 -0.995856,16.025066 -13.34533,15.210429 -13.34533,15.210429 -10.824242,0.352181 -14.113918,-7.746324 -14.50724,-13.104267 -0.737309,-12.905175 8.16224,-15.167037 12.476437,-14.881174 8.715901,0.57753 10.788102,6.321059 10.834577,12.991569"
       id="path4037-7"
       sodipodi:nodetypes="cccccccccccsc" />
    <path
       style="fill:none;stroke:#000000;stroke-width:0.849744px;stroke-linecap:butt;stroke-linejoin:miter;stroke-opacity:1"
       d="m -69.84798,77.611255 c 0.147424,6.082066 -3.705368,10.274286 -9.618593,10.593235 -8.253124,-0.448848 -9.46856,-6.529559 -9.765376,-10.35162 0.09515,-8.022526 4.927005,-9.816875 8.285799,-9.764278 7.509796,0.04547 8.716722,5.477147 8.64745,9.103518"
       id="path9392-0"
       sodipodi:nodetypes="ccccc" />
    <path
       style="fill:none;stroke:#000000;stroke-width:0.849744px;stroke-linecap:butt;stroke-linejoin:miter;stroke-opacity:1"
       d="m -54.735094,89.407422 c -5.544192,8.907079 -16.170072,13.512268 -22.505709,13.808808 -20.888681,-1.21592 -26.155027,-19.907518 -25.667687,-25.229587 0.79819,-18.332813 17.140028,-22.355734 19.715738,-22.218674 18.440939,1.143352 21.636388,17.709336 21.668759,21.284214 0.09999,11.504814 -7.779012,18.501652 -17.297785,18.584796 -8.350574,0.249067 -17.583476,-8.97461 -17.018813,-17.754184 2.230746,-13.671442 8.582346,-15.256047 14.042853,-15.885288 9.868474,0.585001 14.56891,8.989186 14.430763,15.647204 -0.0091,6.119499 -4.578821,12.825784 -11.81086,12.978206"
       id="path10206-8"
       sodipodi:nodetypes="cccccccccc" />
    <path
       style="fill:none;stroke:#000000;stroke-width:0.849744px;stroke-linecap:butt;stroke-linejoin:miter;stroke-opacity:1"
       d="m -79.177835,90.622917 c -2.994531,0.05536 -11.373708,-2.449518 -11.547815,-13.051598 1.344498,-11.410166 6.725524,-10.853029 10.043893,-11.135296 9.246154,1.379671 9.806197,8.286465 9.671879,10.771923 -0.192407,5.024324 -2.144031,9.378685 -8.183915,10.019168 -6.837167,-0.616523 -8.388051,-5.950333 -8.462915,-9.422184"
       id="path13812-1"
       sodipodi:nodetypes="cccccc" />
    <path
       style="fill:none;stroke:#000000;stroke-width:0.849744px;stroke-linecap:butt;stroke-linejoin:miter;stroke-opacity:1"
       d="m -72.2987,77.19211 c -0.308183,5.519996 -3.371258,8.693072 -6.993827,8.848458 -5.521425,-0.301345 -6.730386,-3.989975 -7.111733,-7.930709"
       id="path15044-3"
       sodipodi:nodetypes="ccc" />
    <path
       style="fill:none;stroke:#000000;stroke-width:0.849744px;stroke-linecap:butt;stroke-linejoin:miter;stroke-opacity:1"
       d="m -87.656708,77.80493 c -0.136178,-3.434468 2.367467,-7.872104 6.765705,-8.228177 4.265776,0.109944 7.317543,2.414157 7.672414,7.760957 -0.254413,4.671816 -3.134748,7.402454 -5.975204,7.579282 -2.958086,0.02707 -6.118366,-2.726045 -6.068153,-6.489094"
       id="path15858-9"
       sodipodi:nodetypes="ccccc" />
    <path
       style="fill:none;stroke:#000000;stroke-width:0.849744px;stroke-linecap:butt;stroke-linejoin:miter;stroke-opacity:1"
       d="m -86.40426,78.109859 c -0.117932,-3.370711 1.501097,-6.715174 5.567049,-7.308042 4.972478,-0.5156 6.4012,4.116541 6.393692,6.15166 -0.435114,5.277062 -3.950448,6.213596 -5.068465,6.281451 -4.248662,-0.02707 -4.773324,-3.775938 -4.789434,-4.827871"
       id="path18040-0"
       sodipodi:nodetypes="ccccc" />
    <path
       style="fill:none;stroke:#000000;stroke-width:0.849744px;stroke-linecap:butt;stroke-linejoin:miter;stroke-opacity:1"
       d="m -85.261946,78.427898 c 0.10547,-3.371859 2.211505,-6.390496 4.463924,-6.540994 3.662024,-0.145584 5.578812,3.444275 5.556685,4.775956 0.102432,2.192426 -1.884023,5.298694 -4.184953,5.347009 -3.184262,-0.05158 -3.436153,-1.633731 -3.557187,-3.556021"
       id="path19808-7"
       sodipodi:nodetypes="ccccc" />
    <path
       style="fill:none;stroke:#000000;stroke-width:0.849744px;stroke-linecap:butt;stroke-linejoin:miter;stroke-opacity:1"
       d="m -84.301418,78.407057 c 0.102635,-2.39728 1.453603,-5.335668 4.007839,-5.354396 2.741034,0.10161 4.034977,2.398305 3.990053,3.615325 -0.180249,1.934836 -2.019498,4.254317 -3.789687,4.075106"
       id="path21800-1"
       sodipodi:nodetypes="cccc" />
    <path
       style="fill:none;stroke:#000000;stroke-width:0.849744px;stroke-linecap:butt;stroke-linejoin:miter;stroke-opacity:1"
       d="m -82.983477,78.453848 c -0.101528,-1.7277 1.027557,-4.234055 2.635987,-4.239773 2.175,0.0068 2.965546,1.475388 3.060182,2.786228"
       id="path24058-8"
       sodipodi:nodetypes="ccc" />
    <path
       style="fill:none;stroke:#000000;stroke-width:0.849744px;stroke-linecap:butt;stroke-linejoin:miter;stroke-opacity:1"
       d="m -55.036739,118.54665 c -7.102091,2.5394 -14.204181,5.52268 -21.306272,5.13908 -22.822233,-1.51086 -38.828789,-20.93799 -52.739609,-22.61204 -19.22766,0.282 -27.35181,16.61451 -45.506,14.0958 -22.51822,-4.10049 -43.89111,-29.196726 -44.97992,-38.029346 0.71682,-7.666382 25.07684,-28.300828 40.77128,-29.953603 11.8213,1.310953 31.65649,12.374003 32.09093,30.394103 -3.74394,20.818151 -18.57957,24.236586 -26.041,25.401866 -22.00059,-0.72249 -27.03256,-20.914675 -26.041,-26.282833 1.29534,-15.589213 15.49745,-20.673535 21.70081,-20.409593 12.22753,0.364625 19.96081,11.76461 19.99109,22.318413 -0.15662,9.878966 -10.35036,17.604273 -15.78243,17.472937 -14.07964,-0.16729 -18.06694,-12.367271 -18.14978,-18.353956 0.43924,-10.477233 5.7525,-14.666601 14.07266,-14.976796 12.09852,0.932008 14.24125,9.932594 14.20418,15.343905 0.0686,5.711324 -4.301,13.138614 -10.71889,12.700889 -8.72919,-0.450441 -13.83625,-7.948208 -13.28354,-12.407257 -0.24342,-8.674406 6.4782,-11.787038 9.99553,-11.379418 4.99468,-0.06313 10.809,3.864755 9.99554,11.01236 -0.0456,2.719086 -1.54538,9.242803 -7.89123,9.103527"
       id="path25380"
       sodipodi:nodetypes="cccccccccccccccccccc" />
    <path
       style="fill:none;stroke:#e20000;stroke-width:1.81459;stroke-linecap:butt;stroke-linejoin:miter;stroke-miterlimit:4;stroke-dasharray:none;stroke-opacity:1"
       d="m -296.72775,36.828989 c 6.36531,-2.758698 12.96653,-4.952928 20.64575,-4.568315 19.49085,-2.312322 32.29702,16.643897 52.45132,22.010994 14.51506,0.818838 28.59205,-14.430053 44.08148,-13.704977 23.9024,0.731931 46.85544,30.005695 47.4294,35.923644 -0.52875,11.304026 -25.8327,30.995865 -39.98949,31.562955 -25.35963,-2.44813 -33.03231,-24.86068 -32.7356,-30.317054 0.0751,-14.170552 12.85527,-24.398172 26.83673,-25.557404 18.87658,1.148815 25.86734,19.953214 25.64645,25.622089 -0.56971,12.684777 -13.60774,21.076916 -20.84595,21.437361 -16.5256,-0.391048 -21.82071,-18.385823 -21.56933,-21.143695 -0.41435,-12.518428 11.36904,-18.760656 17.36068,-18.427354 6.87351,-0.01696 17.7972,6.749549 17.36067,17.913411 0.26902,5.430425 -3.99435,14.85506 -13.74386,15.490744 -11.96169,-0.81798 -15.25527,-13.104403 -14.9933,-15.564135 -0.25391,-9.028855 6.68196,-12.407565 11.83682,-12.62753 9.25136,-0.274189 12.0156,8.181818 12.16563,13.068031 -0.21683,7.295624 -5.27375,11.527882 -9.14066,11.306013 -4.39928,0.145513 -10.86774,-6.135541 -10.91618,-10.718714 -0.0594,-4.990829 3.42985,-9.81148 7.95695,-9.911111 3.16859,-0.143543 8.21263,2.73803 8.68035,9.176979 0.0953,4.228863 -3.25979,8.084518 -6.65774,8.252433 -3.69509,-0.05056 -7.36083,-5.362244 -7.34916,-8.07187 0.0768,-3.505494 2.55648,-6.624331 5.74947,-6.395037 4.01917,-0.08111 5.9776,3.327506 6.02159,6.214474 -0.0239,2.787094 -1.98223,5.183719 -4.34015,5.285922 -2.66572,0.389734 -5.15795,-3.206155 -5.41192,-5.527881"
       id="path29652"
       sodipodi:nodetypes="ccccccccccccccccccccccccccc" />
    <path
       style="fill:none;stroke:#000000;stroke-width:0.849744px;stroke-linecap:butt;stroke-linejoin:miter;stroke-opacity:1"
       d="m -297.06331,128.63137 0.10064,-102.130108 242.975513,0.336629 0.100522,101.456709 z"
       id="path66761" />
    <path
       style="fill:none;stroke:#000000;stroke-width:0.849744px;stroke-linecap:butt;stroke-linejoin:miter;stroke-opacity:1"
       d="m -296.78685,112.18953 h 1.7844"
       id="path66763" />
    <path
       style="fill:none;stroke:#000000;stroke-width:0.849744px;stroke-linecap:butt;stroke-linejoin:miter;stroke-opacity:1"
       d="m -297.01301,94.99018 2.06079,-0.02702"
       id="path66765" />
    <path
       style="fill:none;stroke:#000000;stroke-width:0.849744px;stroke-linecap:butt;stroke-linejoin:miter;stroke-opacity:1"
       d="m -296.96278,77.987191 2.01056,-0.02707"
       id="path66767" />
    <path
       style="fill:none;stroke:#000000;stroke-width:0.849744px;stroke-linecap:butt;stroke-linejoin:miter;stroke-opacity:1"
       d="m -297.26434,60.619466 h 2.41266"
       id="path66773" />
    <path
       style="fill:none;stroke:#000000;stroke-width:0.849744px;stroke-linecap:butt;stroke-linejoin:miter;stroke-opacity:1"
       d="m -297.05072,43.812888 1.7718,-0.02714"
       id="path66775" />
    <path
       style="fill:none;stroke:#000000;stroke-width:0.849744px;stroke-linecap:butt;stroke-linejoin:miter;stroke-opacity:1"
       d="m -236.5079,26.515277 0.0113,2.833825"
       id="path66779" />
    <path
       style="fill:none;stroke:#000000;stroke-width:0.849744px;stroke-linecap:butt;stroke-linejoin:miter;stroke-opacity:1"
       d="m -267.11215,26.262772 0.0113,2.833826"
       id="path66779-3" />
    <path
       style="fill:none;stroke:#000000;stroke-width:0.849744px;stroke-linecap:butt;stroke-linejoin:miter;stroke-opacity:1"
       d="m -205.96004,26.571405 v 2.693541"
       id="path66781" />
    <path
       style="fill:none;stroke:#000000;stroke-width:0.849744px;stroke-linecap:butt;stroke-linejoin:miter;stroke-opacity:1"
       d="m -56.852296,44.093457 2.940438,0.02714"
       id="path67499" />
    <path
       style="fill:none;stroke:#000000;stroke-width:0.849744px;stroke-linecap:butt;stroke-linejoin:miter;stroke-opacity:1"
       d="m -56.600972,60.900036 h 2.663983"
       id="path67501" />
    <path
       style="fill:none;stroke:#000000;stroke-width:0.849744px;stroke-linecap:butt;stroke-linejoin:miter;stroke-opacity:1"
       d="m -56.902558,78.015248 h 2.940437"
       id="path67503" />
    <path
       style="fill:none;stroke:#000000;stroke-width:0.849744px;stroke-linecap:butt;stroke-linejoin:miter;stroke-opacity:1"
       d="m -56.67637,94.99018 2.663984,0.02698"
       id="path67505" />
    <path
       style="fill:none;stroke:#000000;stroke-width:0.849744px;stroke-linecap:butt;stroke-linejoin:miter;stroke-opacity:1"
       d="m -56.651238,112.18953 2.73938,0.056"
       id="path67507" />
    <path
       style="fill:none;stroke:#000000;stroke-width:0.849744px;stroke-linecap:butt;stroke-linejoin:miter;stroke-opacity:1"
       d="m -267.06827,128.69313 v -2.22207"
       id="path67509" />
    <path
       style="fill:none;stroke:#000000;stroke-width:0.849744px;stroke-linecap:butt;stroke-linejoin:miter;stroke-opacity:1"
       d="m -236.46666,128.61379 -0.071,-2.14273"
       id="path67511" />
    <path
       style="fill:none;stroke:#000000;stroke-width:0.849744px;stroke-linecap:butt;stroke-linejoin:miter;stroke-opacity:1"
       d="m -205.93616,128.53441 -0.0182,-2.02364"
       id="path67513" />
    <path
       style="fill:none;stroke:#000000;stroke-width:0.849744px;stroke-linecap:butt;stroke-linejoin:miter;stroke-opacity:1"
       d="m -175.38789,128.29633 0.0356,-1.8054"
       id="path67515" />
    <path
       style="fill:none;stroke:#000000;stroke-width:0.849744px;stroke-linecap:butt;stroke-linejoin:miter;stroke-opacity:1"
       d="m -145.62152,128.27652 v -1.8253"
       id="path67517" />
    <path
       style="fill:none;stroke:#000000;stroke-width:0.849744px;stroke-linecap:butt;stroke-linejoin:miter;stroke-opacity:1"
       d="m -115.09101,128.33604 0.0176,-2.02369"
       id="path67519" />
    <path
       style="fill:none;stroke:#000000;stroke-width:0.849744px;stroke-linecap:butt;stroke-linejoin:miter;stroke-opacity:1"
       d="m -84.489432,128.21694 -0.01762,-1.86491"
       id="path67521" />
    <text
       xml:space="preserve"
       style="font-size:33.9897px;line-height:1.25;font-family:sans-serif;-inkscape-font-specification:'sans-serif, Normal';stroke-width:0.849744"
       x="-286.72568"
       y="129.01628"
       id="text1344"
       transform="scale(0.94642612,1.0566065)"><tspan
         sodipodi:role="line"
         id="tspan1342"
         style="font-style:normal;font-variant:normal;font-weight:normal;font-stretch:normal;font-size:6.79797px;font-family:sans-serif;-inkscape-font-specification:'sans-serif, Normal';font-variant-ligatures:normal;font-variant-caps:normal;font-variant-numeric:normal;font-variant-east-asian:normal;stroke-width:0.849744"
         x="-286.72568"
         y="129.01628">-6</tspan></text>
    <text
       xml:space="preserve"
       style="font-size:33.9897px;line-height:1.25;font-family:sans-serif;-inkscape-font-specification:'sans-serif, Normal';stroke-width:0.849744"
       x="-319.08124"
       y="128.93484"
       id="text1344-9"
       transform="scale(0.94642612,1.0566065)"><tspan
         sodipodi:role="line"
         id="tspan1342-5"
         style="font-style:normal;font-variant:normal;font-weight:normal;font-stretch:normal;font-size:6.79797px;font-family:sans-serif;-inkscape-font-specification:'sans-serif, Normal';font-variant-ligatures:normal;font-variant-caps:normal;font-variant-numeric:normal;font-variant-east-asian:normal;stroke-width:0.849744"
         x="-319.08124"
         y="128.93484">-8</tspan></text>
    <text
       xml:space="preserve"
       style="font-size:33.9897px;line-height:1.25;font-family:sans-serif;-inkscape-font-specification:'sans-serif, Normal';stroke-width:0.849744"
       x="-254.83258"
       y="129.04486"
       id="text1344-8"
       transform="scale(0.94642612,1.0566065)"><tspan
         sodipodi:role="line"
         id="tspan1342-6"
         style="font-style:normal;font-variant:normal;font-weight:normal;font-stretch:normal;font-size:6.79797px;font-family:sans-serif;-inkscape-font-specification:'sans-serif, Normal';font-variant-ligatures:normal;font-variant-caps:normal;font-variant-numeric:normal;font-variant-east-asian:normal;stroke-width:0.849744"
         x="-254.83258"
         y="129.04486">-4</tspan></text>
    <text
       xml:space="preserve"
       style="font-size:33.9897px;line-height:1.25;font-family:sans-serif;-inkscape-font-specification:'sans-serif, Normal';stroke-width:0.849744"
       x="-222.63947"
       y="129.03902"
       id="text1344-2"
       transform="scale(0.94642612,1.0566065)"><tspan
         sodipodi:role="line"
         id="tspan1342-1"
         style="font-style:normal;font-variant:normal;font-weight:normal;font-stretch:normal;font-size:6.79797px;font-family:sans-serif;-inkscape-font-specification:'sans-serif, Normal';font-variant-ligatures:normal;font-variant-caps:normal;font-variant-numeric:normal;font-variant-east-asian:normal;stroke-width:0.849744"
         x="-222.63947"
         y="129.03902">-2</tspan></text>
  </g>
</svg>
